<?xml version="1.0" encoding="UTF-8"?>
<svg xmlns="http://www.w3.org/2000/svg" viewBox="0 0 1400 788" width="1400" height="788">
<defs>
  <!-- Sketch / hand-drawn displacement filter -->
  <filter id="rough" x="-4%" y="-10%" width="108%" height="120%">
    <feTurbulence type="fractalNoise" baseFrequency="0.028 0.055" numOctaves="3" seed="2" result="noise"/>
    <feDisplacementMap in="SourceGraphic" in2="noise" scale="3" xChannelSelector="R" yChannelSelector="G"/>
  </filter>
  <filter id="roughSm" x="-3%" y="-8%" width="106%" height="116%">
    <feTurbulence type="fractalNoise" baseFrequency="0.022 0.045" numOctaves="2" seed="7" result="noise"/>
    <feDisplacementMap in="SourceGraphic" in2="noise" scale="2" xChannelSelector="R" yChannelSelector="G"/>
  </filter>
</defs>

<!-- ============================================================ -->
<!-- BACKGROUNDS                                                   -->
<!-- ============================================================ -->
<rect width="1400" height="788" fill="#FEFCFB"/>
<!-- Left warm tint -->
<rect x="0" y="0" width="700" height="788" fill="#FFFAF8"/>
<!-- Right cool tint -->
<rect x="700" y="0" width="700" height="788" fill="#F4FFFD"/>
<!-- Outer border -->
<rect x="5" y="5" width="1390" height="778" rx="14" fill="none" stroke="#D1D5DB" stroke-width="2" filter="url(#rough)"/>
<!-- Center divider -->
<line x1="700" y1="14" x2="700" y2="774" stroke="#CBD5E1" stroke-width="2.5" stroke-dasharray="10,6" filter="url(#roughSm)"/>

<!-- ============================================================ -->
<!-- LEFT PANEL — Without Wazir                                   -->
<!-- ============================================================ -->

<!-- Header box -->
<rect x="22" y="15" width="653" height="72" rx="10" fill="#FEE2E2" stroke="#EF4444" stroke-width="2.5" filter="url(#rough)"/>
<text x="348" y="60" text-anchor="middle"
      font-family="'Caveat','Comic Sans MS','Chalkboard SE',cursive"
      font-size="34" font-weight="700" fill="#DC2626">Without Wazir</text>

<!-- ─── AI ROBOT ICON ─── -->
<!-- Antenna -->
<line x1="348" y1="107" x2="348" y2="93" stroke="#EF4444" stroke-width="2.5" stroke-linecap="round"/>
<circle cx="348" cy="88" r="7" fill="#EF4444" opacity="0.85"/>
<!-- Head -->
<rect x="302" y="107" width="92" height="74" rx="10" fill="#FEF2F2" stroke="#F97316" stroke-width="2.5" filter="url(#rough)"/>
<!-- Eyes — red squares -->
<rect x="317" y="123" width="22" height="16" rx="3" fill="#EF4444" opacity="0.9"/>
<rect x="357" y="123" width="22" height="16" rx="3" fill="#EF4444" opacity="0.9"/>
<!-- Confused/sad mouth -->
<path d="M 323,158 Q 348,149 373,158" stroke="#EF4444" stroke-width="2.5" fill="none" stroke-linecap="round" filter="url(#roughSm)"/>
<!-- Neck + body stub -->
<rect x="331" y="181" width="34" height="20" rx="4" fill="#FECACA" stroke="#F97316" stroke-width="2" filter="url(#rough)"/>
<!-- Caption -->
<text x="348" y="218" text-anchor="middle"
      font-family="'Caveat','Comic Sans MS',cursive"
      font-size="14" fill="#92400E" opacity="0.9">solo AI agent</text>

<!-- Separator -->
<line x1="42" y1="232" x2="658" y2="232" stroke="#FECACA" stroke-width="1.5" filter="url(#roughSm)"/>

<!-- ─────────────────────────────────────────── -->
<!-- ROW 1  y_center=272  "Reviews its own code" -->
<!-- ─────────────────────────────────────────── -->
<!-- Circular arrow (self-review) -->
<path d="M 68,272 A 24,24 0 1 1 94,250" stroke="#F97316" stroke-width="2.8" fill="none" stroke-linecap="round" filter="url(#roughSm)"/>
<polygon points="94,241 105,254 87,257" fill="#F97316"/>
<!-- Red X -->
<line x1="138" y1="258" x2="162" y2="286" stroke="#EF4444" stroke-width="3.5" stroke-linecap="round" filter="url(#roughSm)"/>
<line x1="162" y1="258" x2="138" y2="286" stroke="#EF4444" stroke-width="3.5" stroke-linecap="round" filter="url(#roughSm)"/>
<!-- Text -->
<text x="182" y="268" font-family="'Caveat','Comic Sans MS',cursive" font-size="22" font-weight="700" fill="#1C1917">Reviews its own code</text>
<text x="182" y="292" font-family="'Caveat','Comic Sans MS',cursive" font-size="16" fill="#78716C">No independent check — blind to its own bugs</text>

<!-- ────────────────────────────────────────── -->
<!-- ROW 2  y_center=362  "Skips clarification" -->
<!-- ────────────────────────────────────────── -->
<!-- Fast-forward triangles -->
<polygon points="62,344 86,362 62,380" fill="#F97316" opacity="0.85"/>
<polygon points="85,344 109,362 85,380" fill="#EF4444" opacity="0.95"/>
<!-- Red X -->
<line x1="138" y1="348" x2="162" y2="376" stroke="#EF4444" stroke-width="3.5" stroke-linecap="round" filter="url(#roughSm)"/>
<line x1="162" y1="348" x2="138" y2="376" stroke="#EF4444" stroke-width="3.5" stroke-linecap="round" filter="url(#roughSm)"/>
<!-- Text -->
<text x="182" y="358" font-family="'Caveat','Comic Sans MS',cursive" font-size="22" font-weight="700" fill="#1C1917">Skips clarification</text>
<text x="182" y="382" font-family="'Caveat','Comic Sans MS',cursive" font-size="16" fill="#78716C">Dives in before understanding the problem</text>

<!-- ─────────────────────────────────────────────────── -->
<!-- ROW 3  y_center=452  "Declares 'done' without proof" -->
<!-- ─────────────────────────────────────────────────── -->
<!-- Megaphone -->
<path d="M 60,437 L 82,429 L 82,470 L 60,462 Z" fill="#F97316" opacity="0.88" filter="url(#roughSm)"/>
<path d="M 82,431 Q 110,416 112,450 Q 110,474 82,468" fill="#F97316" opacity="0.48" filter="url(#roughSm)"/>
<line x1="66" y1="462" x2="61" y2="480" stroke="#F97316" stroke-width="2.5" stroke-linecap="round"/>
<path d="M 114,430 Q 124,450 114,466" stroke="#F97316" stroke-width="2" fill="none" stroke-linecap="round" filter="url(#roughSm)"/>
<!-- Red X -->
<line x1="138" y1="438" x2="162" y2="466" stroke="#EF4444" stroke-width="3.5" stroke-linecap="round" filter="url(#roughSm)"/>
<line x1="162" y1="438" x2="138" y2="466" stroke="#EF4444" stroke-width="3.5" stroke-linecap="round" filter="url(#roughSm)"/>
<!-- Text -->
<text x="182" y="448" font-family="'Caveat','Comic Sans MS',cursive" font-size="22" font-weight="700" fill="#1C1917">Declares 'done' without proof</text>
<text x="182" y="472" font-family="'Caveat','Comic Sans MS',cursive" font-size="16" fill="#78716C">No tests, no adversarial check, no evidence</text>

<!-- ──────────────────────────────────────────────────── -->
<!-- ROW 4  y_center=542  "Forgets context between sessions" -->
<!-- ──────────────────────────────────────────────────── -->
<!-- Broken chain -->
<rect x="54" y="526" width="34" height="20" rx="10" fill="none" stroke="#F97316" stroke-width="2.5" filter="url(#roughSm)"/>
<!-- break lightning bolt -->
<path d="M 90,530 L 85,543 L 91,543 L 86,556" stroke="#EF4444" stroke-width="2" fill="none" stroke-linecap="round"/>
<!-- Second link (offset, disconnected) -->
<rect x="92" y="523" width="34" height="20" rx="10" fill="none" stroke="#F97316" stroke-width="2.5" filter="url(#roughSm)"/>
<!-- Red X -->
<line x1="138" y1="528" x2="162" y2="556" stroke="#EF4444" stroke-width="3.5" stroke-linecap="round" filter="url(#roughSm)"/>
<line x1="162" y1="528" x2="138" y2="556" stroke="#EF4444" stroke-width="3.5" stroke-linecap="round" filter="url(#roughSm)"/>
<!-- Text -->
<text x="182" y="538" font-family="'Caveat','Comic Sans MS',cursive" font-size="22" font-weight="700" fill="#1C1917">Forgets context between sessions</text>
<text x="182" y="562" font-family="'Caveat','Comic Sans MS',cursive" font-size="16" fill="#78716C">State lost — work repeated from scratch</text>

<!-- ────────────────────────────────────── -->
<!-- ROW 5  y_center=632  "No structure, no gates" -->
<!-- ────────────────────────────────────── -->
<!-- Scattered puzzle pieces -->
<path d="M 52,614 L 70,614 L 70,606 Q 76,606 76,612 Q 76,618 70,618 L 70,630 L 52,630 L 52,624 Q 46,624 46,618 Q 46,612 52,614 Z"
      fill="#F97316" opacity="0.78" filter="url(#roughSm)"/>
<g transform="translate(94,604) rotate(22)">
  <path d="M 0,4 L 18,4 L 18,-4 Q 24,-4 24,2 Q 24,8 18,8 L 18,20 L 0,20 L 0,14 Q -6,14 -6,8 Q -6,2 0,4 Z"
        fill="#EF4444" opacity="0.82" filter="url(#roughSm)"/>
</g>
<!-- Red X -->
<line x1="138" y1="618" x2="162" y2="646" stroke="#EF4444" stroke-width="3.5" stroke-linecap="round" filter="url(#roughSm)"/>
<line x1="162" y1="618" x2="138" y2="646" stroke="#EF4444" stroke-width="3.5" stroke-linecap="round" filter="url(#roughSm)"/>
<!-- Text -->
<text x="182" y="628" font-family="'Caveat','Comic Sans MS',cursive" font-size="22" font-weight="700" fill="#1C1917">No structure, no gates</text>
<text x="182" y="652" font-family="'Caveat','Comic Sans MS',cursive" font-size="16" fill="#78716C">Raw prompting with zero guardrails</text>

<!-- Left footer tag -->
<rect x="80" y="692" width="540" height="38" rx="20" fill="#FEE2E2" stroke="#FCA5A5" stroke-width="1.5" filter="url(#roughSm)"/>
<text x="350" y="716" text-anchor="middle" font-family="'Caveat','Comic Sans MS',cursive" font-size="17" fill="#DC2626">Unreliable · Inconsistent · No accountability</text>

<!-- ============================================================ -->
<!-- RIGHT PANEL — With Wazir                                     -->
<!-- ============================================================ -->

<!-- Header box -->
<rect x="725" y="15" width="653" height="72" rx="10" fill="#CCFBF1" stroke="#2DD4BF" stroke-width="2.5" filter="url(#rough)"/>
<text x="1052" y="60" text-anchor="middle"
      font-family="'Caveat','Comic Sans MS','Chalkboard SE',cursive"
      font-size="34" font-weight="700" fill="#0F766E">With Wazir</text>

<!-- ─── SHIELD ICON ─── -->
<path d="M 1018,104 L 1086,104 L 1086,150 Q 1086,175 1052,186 Q 1018,175 1018,150 Z"
      fill="#CCFBF1" stroke="#2DD4BF" stroke-width="2.8" filter="url(#rough)"/>
<!-- Checkmark inside shield -->
<path d="M 1033,146 L 1044,158 L 1072,127" stroke="#2DD4BF" stroke-width="4.5" fill="none" stroke-linecap="round" stroke-linejoin="round"/>
<!-- Caption -->
<text x="1052" y="218" text-anchor="middle"
      font-family="'Caveat','Comic Sans MS',cursive"
      font-size="14" fill="#0F766E" opacity="0.9">wazir engineering OS</text>

<!-- Separator -->
<line x1="742" y1="232" x2="1358" y2="232" stroke="#99F6E4" stroke-width="1.5" filter="url(#roughSm)"/>

<!-- ──────────────────────────────────────────────────────── -->
<!-- ROW 1  y_center=272  "Separate reviewer catches blind spots" -->
<!-- ──────────────────────────────────────────────────────── -->
<!-- Agent 1 (original, warm) -->
<circle cx="762" cy="265" r="17" fill="#FEF2F2" stroke="#F97316" stroke-width="2" filter="url(#roughSm)"/>
<circle cx="756" cy="262" r="2.5" fill="#F97316"/><circle cx="768" cy="262" r="2.5" fill="#F97316"/>
<path d="M 756,270 Q 762,274 768,270" stroke="#F97316" stroke-width="1.5" fill="none"/>
<!-- Body stub agent 1 -->
<rect x="752" y="282" width="20" height="12" rx="3" fill="#FECACA" stroke="#F97316" stroke-width="1.5"/>
<!-- Arrow -->
<path d="M 780,265 L 788,265" stroke="#2DD4BF" stroke-width="2"/>
<polygon points="788,261 796,265 788,269" fill="#2DD4BF"/>
<!-- Agent 2 (reviewer, teal) -->
<circle cx="810" cy="263" r="18" fill="#CCFBF1" stroke="#2DD4BF" stroke-width="2.5" filter="url(#roughSm)"/>
<circle cx="804" cy="260" r="3" fill="#0F766E"/><circle cx="816" cy="260" r="3" fill="#0F766E"/>
<path d="M 804,270 Q 810,275 816,270" stroke="#0F766E" stroke-width="1.5" fill="none"/>
<!-- Magnifying glass held by agent 2 -->
<circle cx="832" cy="252" r="9" fill="none" stroke="#2DD4BF" stroke-width="2.5" filter="url(#roughSm)"/>
<line x1="838" y1="258" x2="846" y2="267" stroke="#2DD4BF" stroke-width="2.5" stroke-linecap="round"/>
<!-- Green check -->
<path d="M 854,258 L 863,270 L 879,250" stroke="#10B981" stroke-width="3.5" fill="none" stroke-linecap="round" stroke-linejoin="round" filter="url(#roughSm)"/>
<!-- Text -->
<text x="893" y="268" font-family="'Caveat','Comic Sans MS',cursive" font-size="21" font-weight="700" fill="#1C1917">Separate reviewer catches blind spots</text>
<text x="893" y="292" font-family="'Caveat','Comic Sans MS',cursive" font-size="16" fill="#78716C">Independent Reviewer role with red-team mandate</text>

<!-- ──────────────────────────────────────────────────── -->
<!-- ROW 2  y_center=362  "Clarifier forces questions first" -->
<!-- ──────────────────────────────────────────────────── -->
<!-- Speech bubble with ? -->
<ellipse cx="792" cy="358" rx="30" ry="24" fill="#CCFBF1" stroke="#2DD4BF" stroke-width="2.5" filter="url(#roughSm)"/>
<path d="M 783,377 L 778,391 L 797,378" fill="#CCFBF1" stroke="#2DD4BF" stroke-width="2" filter="url(#roughSm)"/>
<text x="792" y="367" text-anchor="middle" font-family="'Caveat','Comic Sans MS',cursive" font-size="30" font-weight="700" fill="#0F766E">?</text>
<!-- Green check -->
<path d="M 854,348 L 863,360 L 879,340" stroke="#10B981" stroke-width="3.5" fill="none" stroke-linecap="round" stroke-linejoin="round" filter="url(#roughSm)"/>
<!-- Text -->
<text x="893" y="358" font-family="'Caveat','Comic Sans MS',cursive" font-size="21" font-weight="700" fill="#1C1917">Clarifier forces questions first</text>
<text x="893" y="382" font-family="'Caveat','Comic Sans MS',cursive" font-size="16" fill="#78716C">Dedicated role blocks work until specs are clear</text>

<!-- ──────────────────────────────────────────────────────── -->
<!-- ROW 3  y_center=452  "Verified by tests + adversarial review" -->
<!-- ──────────────────────────────────────────────────────── -->
<!-- Test tube -->
<path d="M 772,428 L 772,468 Q 772,482 784,482 Q 796,482 796,468 L 796,428" stroke="#2DD4BF" stroke-width="2.5" fill="none" stroke-linecap="round" filter="url(#roughSm)"/>
<line x1="770" y1="436" x2="798" y2="436" stroke="#2DD4BF" stroke-width="2" stroke-linecap="round"/>
<!-- liquid -->
<path d="M 773,468 Q 773,480 784,480 Q 795,480 795,468 L 795,454 L 773,454 Z" fill="#2DD4BF" opacity="0.38"/>
<!-- plus -->
<text x="810" y="458" text-anchor="middle" font-family="'Caveat','Comic Sans MS',cursive" font-size="22" font-weight="700" fill="#0F766E">+</text>
<!-- Magnifying glass -->
<circle cx="829" cy="445" r="13" fill="none" stroke="#2DD4BF" stroke-width="2.5" filter="url(#roughSm)"/>
<line x1="838" y1="455" x2="848" y2="466" stroke="#2DD4BF" stroke-width="2.5" stroke-linecap="round"/>
<!-- Green check -->
<path d="M 854,438 L 863,450 L 879,430" stroke="#10B981" stroke-width="3.5" fill="none" stroke-linecap="round" stroke-linejoin="round" filter="url(#roughSm)"/>
<!-- Text -->
<text x="893" y="448" font-family="'Caveat','Comic Sans MS',cursive" font-size="21" font-weight="700" fill="#1C1917">Verified by tests + adversarial review</text>
<text x="893" y="472" font-family="'Caveat','Comic Sans MS',cursive" font-size="16" fill="#78716C">TDD enforced + Adversary role red-teams output</text>

<!-- ─────────────────────────────────────────────── -->
<!-- ROW 4  y_center=542  "Artifacts persist across sessions" -->
<!-- ─────────────────────────────────────────────── -->
<!-- Document 1 -->
<rect x="756" y="524" width="32" height="38" rx="3" fill="#CCFBF1" stroke="#2DD4BF" stroke-width="2" filter="url(#roughSm)"/>
<line x1="763" y1="534" x2="781" y2="534" stroke="#2DD4BF" stroke-width="1.5" stroke-linecap="round"/>
<line x1="763" y1="541" x2="781" y2="541" stroke="#2DD4BF" stroke-width="1.5" stroke-linecap="round"/>
<line x1="763" y1="548" x2="781" y2="548" stroke="#2DD4BF" stroke-width="1.5" stroke-linecap="round"/>
<!-- Chain link -->
<path d="M 788,543 L 798,543" stroke="#2DD4BF" stroke-width="2.5" stroke-dasharray="3,2"/>
<!-- Document 2 -->
<rect x="800" y="521" width="32" height="38" rx="3" fill="#CCFBF1" stroke="#2DD4BF" stroke-width="2" filter="url(#roughSm)"/>
<line x1="807" y1="531" x2="825" y2="531" stroke="#2DD4BF" stroke-width="1.5" stroke-linecap="round"/>
<line x1="807" y1="538" x2="825" y2="538" stroke="#2DD4BF" stroke-width="1.5" stroke-linecap="round"/>
<line x1="807" y1="545" x2="825" y2="545" stroke="#2DD4BF" stroke-width="1.5" stroke-linecap="round"/>
<!-- lock symbol -->
<rect x="839" y="537" width="10" height="9" rx="2" fill="#2DD4BF" opacity="0.6"/>
<path d="M 841,537 Q 841,531 844,531 Q 847,531 847,537" stroke="#2DD4BF" stroke-width="1.8" fill="none"/>
<!-- Green check -->
<path d="M 854,528 L 863,540 L 879,520" stroke="#10B981" stroke-width="3.5" fill="none" stroke-linecap="round" stroke-linejoin="round" filter="url(#roughSm)"/>
<!-- Text -->
<text x="893" y="538" font-family="'Caveat','Comic Sans MS',cursive" font-size="21" font-weight="700" fill="#1C1917">Artifacts persist across sessions</text>
<text x="893" y="562" font-family="'Caveat','Comic Sans MS',cursive" font-size="16" fill="#78716C">Decisions, specs &amp; state saved to disk</text>

<!-- ──────────────────────────────────────────────────── -->
<!-- ROW 5  y_center=632  "15 workflows, 3 approval gates" -->
<!-- ──────────────────────────────────────────────────── -->
<!-- Pipeline: box → gate → box → gate → box -->
<!-- Stage box 1 -->
<rect x="744" y="618" width="28" height="28" rx="4" fill="#CCFBF1" stroke="#2DD4BF" stroke-width="2" filter="url(#roughSm)"/>
<text x="758" y="637" text-anchor="middle" font-family="'Caveat','Comic Sans MS',cursive" font-size="14" fill="#0F766E">W</text>
<!-- Arrow -->
<line x1="772" y1="632" x2="780" y2="632" stroke="#2DD4BF" stroke-width="2"/>
<polygon points="780,628 787,632 780,636" fill="#2DD4BF"/>
<!-- Gate diamond 1 -->
<polygon points="791,619 804,632 791,645 778,632" fill="#A7F3D0" stroke="#10B981" stroke-width="2" filter="url(#roughSm)"/>
<!-- Arrow -->
<line x1="805" y1="632" x2="813" y2="632" stroke="#2DD4BF" stroke-width="2"/>
<polygon points="813,628 820,632 813,636" fill="#2DD4BF"/>
<!-- Stage box 2 -->
<rect x="821" y="618" width="28" height="28" rx="4" fill="#CCFBF1" stroke="#2DD4BF" stroke-width="2" filter="url(#roughSm)"/>
<text x="835" y="637" text-anchor="middle" font-family="'Caveat','Comic Sans MS',cursive" font-size="14" fill="#0F766E">W</text>
<!-- Green check -->
<path d="M 854,618 L 863,630 L 879,610" stroke="#10B981" stroke-width="3.5" fill="none" stroke-linecap="round" stroke-linejoin="round" filter="url(#roughSm)"/>
<!-- Text -->
<text x="893" y="628" font-family="'Caveat','Comic Sans MS',cursive" font-size="21" font-weight="700" fill="#1C1917">15 workflows, 3 approval gates</text>
<text x="893" y="652" font-family="'Caveat','Comic Sans MS',cursive" font-size="16" fill="#78716C">Structured phases, human sign-off at each gate</text>

<!-- Right footer tag -->
<rect x="780" y="692" width="545" height="38" rx="20" fill="#CCFBF1" stroke="#5EEAD4" stroke-width="1.5" filter="url(#roughSm)"/>
<text x="1052" y="716" text-anchor="middle" font-family="'Caveat','Comic Sans MS',cursive" font-size="17" fill="#0F766E">Reliable · Structured · Accountable</text>

</svg>
